<svg xmlns="http://www.w3.org/2000/svg" version="1.1" xmlns:xlink="http://www.w3.org/1999/xlink" xmlns:svgjs="http://svgjs.dev/svgjs" width="1000" height="1000" viewBox="0 0 1000 1000"><rect width="1000" height="1000" fill="#61777f"></rect><g transform="matrix(0.7,0,0,0.7,149.57576221239844,412.47548531399354)"><svg viewBox="0 0 396 99" data-background-color="#61777f" preserveAspectRatio="xMidYMid meet" height="249" width="1000" xmlns="http://www.w3.org/2000/svg" xmlns:xlink="http://www.w3.org/1999/xlink"><g id="tight-bounds" transform="matrix(1,0,0,1,0.2399973769860253,0.2127191848229586)"><svg viewBox="0 0 395.52 98.57456163035408" height="98.57456163035408" width="395.52"><g><svg viewBox="0 0 558.4898418132572 139.19116942695092" height="98.57456163035408" width="395.52"><g transform="matrix(1,0,0,1,162.96984181325715,19.23698506551927)"><svg viewBox="0 0 395.52 100.71719929591238" height="100.71719929591238" width="395.52"><g id="textblocktransform"><svg viewBox="0 0 395.52 100.71719929591238" height="100.71719929591238" width="395.52" id="textblock"><g><svg viewBox="0 0 395.52 100.71719929591238" height="100.71719929591238" width="395.52"><g transform="matrix(1,0,0,1,0,0)"><svg width="395.52" viewBox="3.450000047683716 -31.950000762939453 127.80999755859375 32.54999923706055" height="100.71719929591238" data-palette-color="#ffffff"><g class="undefined-text-0" data-fill-palette-color="primary" id="text-0"><path d="M15.1 0.6L15.1 0.6Q11.95 0.6 9.33-0.54 6.7-1.68 5.1-3.9 3.5-6.13 3.45-9.4L3.45-9.4 7.25-9.4Q7.25-7.2 8.33-5.79 9.4-4.38 11.18-3.69 12.95-3 15.05-3L15.05-3Q17.32-3 19-3.73 20.68-4.45 21.59-5.64 22.5-6.83 22.5-8.25L22.5-8.25Q22.5-10.25 21.28-11.49 20.05-12.73 17.65-13.5L17.65-13.5 12.1-15.45Q8.2-16.85 6.2-18.65 4.2-20.45 4.2-23.7L4.2-23.7Q4.2-27.35 7.01-29.65 9.83-31.95 15-31.95L15-31.95Q19.8-31.95 22.5-29.74 25.2-27.53 25.6-23.8L25.6-23.8 21.75-23.8Q21.38-25.98 19.71-27.19 18.05-28.4 15-28.4L15-28.4Q11.9-28.4 10.18-27.03 8.45-25.65 8.45-23.55L8.45-23.55Q8.45-21.83 9.54-20.81 10.63-19.8 12.95-19L12.95-19 19.45-16.75Q22.83-15.63 24.79-13.6 26.75-11.58 26.75-8.35L26.75-8.35Q26.75-5.85 25.41-3.83 24.08-1.8 21.48-0.6 18.88 0.6 15.1 0.6ZM38.67-16.25L53.32-31.4 58.72-31.4 38.67-10.75 38.67-16.25ZM41.52-15.6L44.32-18.15 59.57 0 54.47 0 41.52-15.6ZM35.27 0L35.27-31.4 39.22-31.4 39.22 0 35.27 0ZM66 0L61.89 0 72.69-31.4 77.44-31.4 88 0 83.89 0 81.25-8.05 68.75-8.05 66 0ZM75-26.65L69.75-11.1 80.25-11.1 75-26.65ZM94.37 0L94.37-31.4 103.57-31.4Q108.32-31.4 111.82-29.46 115.32-27.53 117.24-24 119.17-20.48 119.17-15.7L119.17-15.7Q119.17-10.98 117.24-7.45 115.32-3.93 111.82-1.96 108.32 0 103.57 0L103.57 0 94.37 0ZM103.57-27.95L98.27-27.95 98.27-3.4 103.57-3.4Q107.12-3.4 109.68-5 112.24-6.6 113.63-9.39 115.02-12.18 115.02-15.7L115.02-15.7Q115.02-19.25 113.63-22.01 112.24-24.78 109.68-26.36 107.12-27.95 103.57-27.95L103.57-27.95ZM131.26 0L127.36 0 127.36-31.4 131.26-31.4 131.26 0Z" fill="#ffffff" data-fill-palette-color="primary"></path></g></svg></g></svg></g></svg></g></svg></g><g><svg viewBox="0 0 139.19292827227534 139.19116942695092" height="139.19116942695092" width="139.19292827227534"><g><svg xmlns="http://www.w3.org/2000/svg" xmlns:xlink="http://www.w3.org/1999/xlink" version="1.1" x="0" y="0" viewBox="0 0 32.000404357910156 32" enable-background="new 0 0 32 32" xml:space="preserve" width="139.19292827227534" height="139.19116942695092" class="icon-icon-0" data-fill-palette-color="accent" id="icon-0"><g fill="#ffffff" data-fill-palette-color="accent"><path fill="#ffffff" d="M29.5 21h-2.691c-0.045-0.239-0.1-0.473-0.16-0.706l4.799-2.399c0.494-0.247 0.693-0.848 0.447-1.342-0.248-0.494-0.846-0.692-1.342-0.447l-4.578 2.288C24.229 14.626 20.42 12 16 12c-5.382 0-9.865 3.888-10.809 9H2.5C1.122 21 0 22.121 0 23.5c0 0.49 0.18 0.963 0.505 1.329L4 28.761V29.5C4 30.879 5.122 32 6.5 32h19c1.379 0 2.5-1.121 2.5-2.5v-0.739l3.494-3.932C31.82 24.463 32 23.99 32 23.5 32 22.121 30.879 21 29.5 21zM25.799 21h-0.562l0.498-0.25C25.754 20.834 25.781 20.915 25.799 21zM16 13c4.029 0 7.5 2.4 9.082 5.841l-0.891 0.445C22.775 16.171 19.645 14 16 14c-4.282 0-7.859 2.993-8.77 7H6.202C7.131 16.441 11.171 13 16 13zM20.576 21c-0.773-1.763-2.531-3-4.576-3s-3.802 1.237-4.576 3H10.35c0.826-2.326 3.043-4 5.65-4 2.465 0 4.588 1.496 5.508 3.627L20.764 21H20.576zM16 20c-0.883 0-1.67 0.391-2.22 1h-1.224c0.694-1.189 1.97-2 3.444-2 1.473 0 2.75 0.811 3.443 2h-1.225C17.67 20.391 16.883 20 16 20zM16 16c-3.165 0-5.842 2.112-6.705 5H8.263c0.892-3.444 4.017-6 7.737-6 3.246 0 6.043 1.948 7.295 4.734l-0.893 0.446C21.314 17.723 18.855 16 16 16zM26 28v1.5c0 0.276-0.225 0.5-0.5 0.5h-19C6.224 30 6 29.776 6 29.5V28l-4-4.5C2 23.224 2.224 23 2.5 23H5h1 1 1 1 1 1 1 1 6 1 1 1 1 1 1 1 1 2.5c0.275 0 0.5 0.224 0.5 0.5L26 28z" data-fill-palette-color="accent"></path><path fill="#ffffff" d="M7.977 11.712c0.003 0.006 0.005 0.012 0.008 0.018 0 0 0.001 0 0.002 0C8.07 11.89 8.236 12 8.43 12c0.277 0 0.502-0.226 0.502-0.503 0-0.043-0.007-0.085-0.018-0.125 0.002-0.007 0.002-0.013 0-0.02-0.375-0.882-0.019-1.85 0.419-2.892 0.473-1.126 0.98-2.376 0.422-3.647C9.684 4.63 9.507 4.5 9.299 4.5c-0.271 0-0.49 0.22-0.49 0.49 0 0.06 0.012 0.116 0.032 0.169 0 0.002 0 0.004 0.001 0.006 0.001 0.003 0.002 0.006 0.003 0.009C8.847 5.178 8.848 5.182 8.85 5.186c0.404 0.909 0.013 1.841-0.428 2.893C7.956 9.188 7.44 10.417 7.959 11.67 7.965 11.685 7.97 11.698 7.977 11.712z" data-fill-palette-color="accent"></path><path fill="#ffffff" d="M20.154 11.566c0.004 0.006 0.006 0.012 0.008 0.018h0.002c0.084 0.16 0.25 0.271 0.443 0.271 0.277 0 0.504-0.226 0.504-0.503 0-0.043-0.008-0.085-0.018-0.125 0.002-0.007 0.002-0.013-0.002-0.02-0.373-0.882-0.018-1.85 0.42-2.892 0.473-1.126 0.98-2.376 0.422-3.647-0.072-0.184-0.248-0.313-0.457-0.313-0.27 0-0.49 0.22-0.49 0.49 0 0.06 0.014 0.116 0.033 0.169 0 0.002 0 0.004 0 0.006 0.002 0.003 0.002 0.006 0.004 0.009 0.002 0.004 0.004 0.008 0.004 0.012 0.404 0.909 0.014 1.841-0.428 2.893-0.465 1.109-0.98 2.339-0.461 3.592C20.143 11.539 20.148 11.553 20.154 11.566z" data-fill-palette-color="accent"></path><path fill="#ffffff" d="M15.019 7.212c0.003 0.006 0.005 0.012 0.008 0.018 0 0 0.001 0 0.002 0 0.084 0.16 0.25 0.271 0.443 0.271 0.277 0 0.502-0.226 0.502-0.503 0-0.043-0.007-0.085-0.018-0.125 0.002-0.007 0.002-0.013 0-0.02-0.375-0.882-0.019-1.85 0.419-2.892 0.473-1.126 0.98-2.376 0.422-3.647C16.725 0.13 16.549 0 16.34 0c-0.27 0-0.49 0.22-0.49 0.49 0 0.06 0.012 0.116 0.032 0.169 0 0.002 0 0.004 0.001 0.006 0.001 0.003 0.002 0.006 0.003 0.009 0.001 0.004 0.003 0.008 0.004 0.012 0.404 0.909 0.013 1.841-0.428 2.893-0.466 1.109-0.982 2.339-0.462 3.592C15.007 7.185 15.012 7.198 15.019 7.212z" data-fill-palette-color="accent"></path></g></svg></g></svg></g></svg></g><defs></defs></svg><rect width="395.52" height="98.57456163035408" fill="none" stroke="none" visibility="hidden"></rect></g></svg></g></svg>